<svg width="23" height="20" viewBox="0 0 23 20" fill="none" xmlns="http://www.w3.org/2000/svg">
<path d="M2.3 20C1.6675 20 1.12623 19.7554 0.6762 19.2662C0.226167 18.7771 0.000766667 18.1883 0 17.5V2.5C0 1.8125 0.2254 1.22417 0.6762 0.735C1.127 0.245833 1.66827 0.000833333 2.3 0H20.7C21.3325 0 21.8741 0.245 22.3249 0.735C22.7757 1.225 23.0008 1.81333 23 2.5V17.5C23 18.1875 22.775 18.7762 22.3249 19.2662C21.8749 19.7562 21.3333 20.0008 20.7 20H2.3ZM11.5 11.25L20.7 5V2.5L11.5 8.75L2.3 2.5V5L11.5 11.25Z" fill="black"/>
</svg>
