<svg width="16" height="16" viewBox="0 0 16 16" fill="none" xmlns="http://www.w3.org/2000/svg">
<g clip-path="url(#clip0_163_156)">
<path d="M0.143072 2.31C0.259817 2.14908 0.435678 2.0411 0.632004 2.00978C0.828331 1.97847 1.02906 2.02638 1.19007 2.143L15.6901 12.643C15.7729 12.6995 15.8435 12.7721 15.8978 12.8564C15.9521 12.9407 15.989 13.0351 16.0062 13.1339C16.0234 13.2326 16.0206 13.3339 15.9979 13.4316C15.9753 13.5293 15.9334 13.6214 15.8745 13.7026C15.8157 13.7838 15.7411 13.8524 15.6553 13.9043C15.5695 13.9562 15.4741 13.9903 15.3749 14.0047C15.2757 14.0191 15.1745 14.0134 15.0775 13.9881C14.9805 13.9627 14.8896 13.9181 14.8101 13.857L12.5621 12.229C11.3461 13.19 9.79207 14 8.00007 14C6.01907 14 4.33007 13.008 3.06707 11.922C1.79707 10.832 0.880072 9.577 0.430072 8.9C0.252711 8.63391 0.158069 8.32128 0.158069 8.0015C0.158069 7.68172 0.252711 7.36909 0.430072 7.103C0.783072 6.57 1.42507 5.683 2.29807 4.798L0.310072 3.357C0.149152 3.24025 0.0411684 3.06439 0.00985367 2.86807C-0.0214611 2.67174 0.0264552 2.47101 0.143072 2.31ZM1.67907 7.932C1.665 7.95191 1.65733 7.97563 1.65707 8C1.6564 8.022 1.66374 8.04467 1.67907 8.068C2.09107 8.689 2.92107 9.818 4.04507 10.785C5.17507 11.758 6.52707 12.5 8.00007 12.5C9.19507 12.5 10.3101 12.012 11.2901 11.309L9.06307 9.695C8.72543 9.90708 8.33211 10.0134 7.93361 10.0003C7.53511 9.98721 7.14961 9.85531 6.82662 9.62153C6.50363 9.38775 6.25789 9.06277 6.12094 8.68831C5.984 8.31384 5.9621 7.907 6.05807 7.52L3.52907 5.688C2.83723 6.37071 2.21731 7.12266 1.67907 7.932ZM8.00007 3.5C7.48407 3.5 6.98307 3.59 6.50107 3.751C6.40694 3.78486 6.30699 3.79955 6.2071 3.79421C6.10721 3.78886 6.0094 3.76358 5.91943 3.71987C5.82945 3.67615 5.74913 3.61488 5.68319 3.53965C5.61725 3.46443 5.56703 3.37677 5.53548 3.28185C5.50392 3.18692 5.49168 3.08664 5.49946 2.98691C5.50725 2.88718 5.53491 2.79002 5.58081 2.70114C5.62671 2.61226 5.68992 2.53346 5.76674 2.46938C5.84355 2.40529 5.9324 2.35723 6.02807 2.328C6.66333 2.11272 7.32932 2.00194 8.00007 2C9.98107 2 11.6701 2.992 12.9331 4.078C14.2031 5.169 15.1201 6.423 15.5701 7.101C15.7476 7.36719 15.8424 7.68001 15.8424 8C15.8424 8.31999 15.7476 8.63281 15.5701 8.899C15.4601 9.065 15.3221 9.264 15.1601 9.486C15.1018 9.56545 15.0285 9.63265 14.9443 9.68376C14.8601 9.73488 14.7666 9.7689 14.6693 9.7839C14.5719 9.7989 14.4725 9.79457 14.3769 9.77117C14.2812 9.74776 14.191 9.70574 14.1116 9.6475C14.0321 9.58926 13.9649 9.51594 13.9138 9.43173C13.8627 9.34752 13.8287 9.25406 13.8137 9.1567C13.7987 9.05934 13.803 8.95997 13.8264 8.86428C13.8498 8.76859 13.8918 8.67845 13.9501 8.599C14.0981 8.398 14.2221 8.217 14.3211 8.069C14.3351 8.04889 14.3425 8.02499 14.3425 8.0005C14.3425 7.97601 14.3351 7.95211 14.3211 7.932C13.9091 7.311 13.0791 6.182 11.9551 5.215C10.8251 4.242 9.47307 3.5 8.00007 3.5Z" fill="black"/>
</g>
<defs>
<clipPath id="clip0_163_156">
<rect width="16" height="16" fill="white"/>
</clipPath>
</defs>
</svg>
