<svg width="16" height="16" viewBox="0 0 16 16" fill="none" xmlns="http://www.w3.org/2000/svg">
<path d="M8.00005 2C9.98105 2 11.6711 2.992 12.9331 4.078C14.2031 5.169 15.1201 6.423 15.5701 7.101C15.7476 7.36719 15.8424 7.68001 15.8424 8C15.8424 8.31999 15.7476 8.63281 15.5701 8.899C15.1201 9.577 14.2031 10.831 12.9331 11.922C11.67 13.008 9.98105 14 8.00005 14C6.01905 14 4.32905 13.008 3.06705 11.922C1.79705 10.83 0.880051 9.576 0.430051 8.898C0.252478 8.63181 0.157715 8.31899 0.157715 7.999C0.157715 7.67901 0.252478 7.36619 0.430051 7.1C0.880051 6.423 1.79705 5.169 3.06705 4.078C4.33005 2.992 6.01905 2 8.00005 2ZM1.67905 7.932C1.66529 7.95201 1.65792 7.97572 1.65792 8C1.65792 8.02428 1.66529 8.04799 1.67905 8.068C2.09005 8.69 2.92005 9.818 4.04505 10.785C5.17605 11.758 6.52705 12.5 8.00005 12.5C9.47305 12.5 10.8251 11.758 11.9551 10.785C13.0791 9.818 13.9091 8.689 14.3211 8.068C14.3348 8.04799 14.3422 8.02428 14.3422 8C14.3422 7.97572 14.3348 7.95201 14.3211 7.932C13.9091 7.311 13.0791 6.182 11.9551 5.215C10.8241 4.242 9.47305 3.5 8.00005 3.5C6.52705 3.5 5.17505 4.242 4.04505 5.215C2.92105 6.182 2.09105 7.311 1.67905 7.932ZM8.00005 10C7.73371 10.006 7.46885 9.95877 7.22103 9.86103C6.9732 9.76328 6.7474 9.61701 6.55688 9.4308C6.36636 9.24458 6.21496 9.02218 6.11158 8.77666C6.00819 8.53113 5.9549 8.26742 5.95483 8.00101C5.95477 7.7346 6.00793 7.47087 6.11119 7.22529C6.21445 6.97971 6.36574 6.75723 6.55616 6.57093C6.74659 6.38462 6.97232 6.23823 7.2201 6.14036C7.46787 6.04249 7.73271 5.99511 7.99905 6.001C8.52161 6.01256 9.01888 6.22822 9.38442 6.60184C9.74996 6.97545 9.9547 7.47732 9.95483 8.00001C9.95497 8.5227 9.75047 9.02467 9.38512 9.39847C9.01977 9.77227 8.52261 9.98818 8.00005 10Z" fill="black"/>
</svg>
