<svg width="25" height="25" viewBox="0 0 25 25" fill="none" xmlns="http://www.w3.org/2000/svg">
<path fill-rule="evenodd" clip-rule="evenodd" d="M3.18617 19.6083C4.93374 17.8603 4.99601 15.097 4.45268 12.6857C4.19939 11.5616 4.1325 10.3936 4.26454 9.22875C4.55994 6.62252 5.8293 4.22415 7.81831 2.51412C9.80732 0.804097 12.3691 -0.0912825 14.9904 0.00736432C17.6116 0.106011 20.0988 1.1914 21.9537 3.04608C23.8085 4.90076 24.894 7.38775 24.9926 10.0088C25.0913 12.6299 24.1958 15.1914 22.4857 17.1803C20.7755 19.1691 18.3769 20.4384 15.7705 20.7337C14.6057 20.8657 13.4379 20.7989 12.3139 20.5457C9.90213 20.0026 7.13836 20.0654 5.39052 21.8137L2.70152 24.5035C2.5587 24.6568 2.38646 24.7797 2.19508 24.865C2.00371 24.9502 1.79712 24.9961 1.58764 24.9998C1.37816 25.0035 1.17009 24.9649 0.975826 24.8865C0.781565 24.808 0.605095 24.6912 0.456949 24.5431C0.308804 24.395 0.192013 24.2185 0.113546 24.0243C0.03508 23.83 -0.00345421 23.622 0.000242233 23.4125C0.00393867 23.203 0.0497894 22.9965 0.135059 22.8051C0.220329 22.6137 0.343273 22.4415 0.496553 22.2987L3.18617 19.6083ZM14.6001 17.6811C12.6691 17.6811 10.8173 16.9141 9.45191 15.5489C8.08654 14.1836 7.31948 12.3319 7.31948 10.4012C7.31948 8.4704 8.08654 6.61871 9.45191 5.25345C10.8173 3.8882 12.6691 3.1212 14.6001 3.1212C16.531 3.1212 18.3828 3.8882 19.7482 5.25345C21.1136 6.61871 21.8806 8.4704 21.8806 10.4012C21.8806 12.3319 21.1136 14.1836 19.7482 15.5489C18.3828 16.9141 16.531 17.6811 14.6001 17.6811Z" fill="black"/>
</svg>
