<svg width="90" height="90" viewBox="0 0 90 90" fill="none" xmlns="http://www.w3.org/2000/svg">
<path d="M44.9999 0C20.1599 0 -0.00012207 20.16 -0.00012207 45C-0.00012207 69.84 20.1599 90 44.9999 90C69.8399 90 89.9999 69.84 89.9999 45C89.9999 20.16 69.8399 0 44.9999 0ZM44.9999 18C53.6849 18 60.7499 25.065 60.7499 33.75C60.7499 42.435 53.6849 49.5 44.9999 49.5C36.3149 49.5 29.2499 42.435 29.2499 33.75C29.2499 25.065 36.3149 18 44.9999 18ZM44.9999 81C35.8649 81 25.0649 77.31 17.3699 68.04C25.2531 61.858 34.9818 58.4983 44.9999 58.4983C55.018 58.4983 64.7467 61.858 72.6299 68.04C64.9349 77.31 54.1349 81 44.9999 81Z" fill="black"/>
</svg>
